<svg id="Layer_3" enable-background="new 0 0 64 64" height="512" viewBox="0 0 64 64" width="512" xmlns="http://www.w3.org/2000/svg"><path d="m42 2h4v10h-4z" fill="#aa8058"/><path d="m18 2h4v10h-4z" fill="#aa8058"/><path d="m14 2h4v10h-4z" fill="#e3aa75"/><path d="m46 2h4v10h-4z" fill="#e3aa75"/><path d="m22 2h20v10h-20z" fill="#e3aa75"/><path d="m58 22h4v8h-4z" fill="#9ab878"/><path d="m2 22h4v8h-4z" fill="#9ab878"/><path d="m4 50v-9.515c0-1.591.632-3.117 1.757-4.243l4.243-4.242v-16c0-2.209 1.791-4 4-4h36c2.209 0 4 1.791 4 4v16l4.243 4.243c1.125 1.125 1.757 2.651 1.757 4.242v9.515" fill="#738a5a"/><path d="m10 16v16l-4.243 4.243c-1.125 1.125-1.757 2.651-1.757 4.242v9.461l53 .054v-9.515c0-1.591-.632-3.117-1.757-4.243l-4.243-4.242v-16c0-2.209-1.791-4-4-4h-33c-2.209 0-4 1.791-4 4z" fill="#9ab878"/><path d="m20 46h24v4h-24z" fill="#aa8058"/><path d="m20 46h21v4h-21z" fill="#e3aa75"/><path d="m20 42h24v4h-24z" fill="#aa8058"/><path d="m20 42h21v4h-21z" fill="#e3aa75"/><path d="m20 38h24v4h-24z" fill="#aa8058"/><path d="m20 38h21v4h-21z" fill="#e3aa75"/><path d="m2 50h60v6h-60z" fill="#aa8058"/><path d="m1 50h56v6h-56z" fill="#e3aa75"/><path d="m22 50h20v6h-20z" fill="#bfbf73"/><path d="m22 50h17v6h-17z" fill="#ff9"/><circle cx="52" cy="42" fill="#bfbf73" r="4"/><ellipse cx="50.5" cy="42" fill="#ff9" rx="2.5" ry="3.703"/><circle cx="12" cy="42" fill="#bfbf73" r="4"/><ellipse cx="10.5" cy="42" fill="#ff9" rx="2.5" ry="3.703"/><path d="m10 18h44v14h-44z" fill="#93a7bf"/><path d="m10 18h41v14h-41z" fill="#c4deff"/><path d="m56 62h-6c-1.105 0-2-.895-2-2v-4h10v4c0 1.105-.895 2-2 2z" fill="#717072"/><path d="m55 60v-4h-7v4c0 1.105.895 2 2 2h3c1.105 0 2-.895 2-2z" fill="#979598"/><path d="m14 62h-6c-1.105 0-2-.895-2-2v-4h10v4c0 1.105-.895 2-2 2z" fill="#717072"/><path d="m13 60v-4h-7v4c0 1.105.895 2 2 2h3c1.105 0 2-.895 2-2z" fill="#979598"/><path d="m20 41h24v2h-24z" fill="#fff"/><path d="m20 45h24v2h-24z" fill="#fff"/><g fill="#979598"><path d="m13 27h14v2h-14z"/><path d="m19 28h2v4h-2z"/><path d="m37 27h14v2h-14z"/><path d="m43 28h2v4h-2z"/></g><path d="m61 22h-2v-2c0-.551-.448-1-1-1h-4v-2h4c1.654 0 3 1.346 3 3z" fill="#738a5a"/><path d="m5 22h-2v-2c0-1.654 1.346-3 3-3h4v2h-4c-.552 0-1 .449-1 1z" fill="#738a5a"/></svg>