<?xml version="1.0" encoding="utf-8"?>
<!-- Generator: Adobe Illustrator 22.0.1, SVG Export Plug-In . SVG Version: 6.00 Build 0)  -->
<svg version="1.1" id="Layer_1" focusable="false" xmlns="http://www.w3.org/2000/svg" xmlns:xlink="http://www.w3.org/1999/xlink"
	 x="0px" y="0px" viewBox="0 0 512 512" style="enable-background:new 0 0 512 512;" xml:space="preserve">
<style type="text/css">
	.st0{fill:#22A6F9;}
	.st1{fill:#FE0000;}
</style>
<path class="st0" d="M496,397H53V80c0-8.8-7.2-16-16-16H16C7.2,64,0,71.2,0,80v336c0,17.7,14.3,32,32,32h464c8.8,0,16-7.2,16-16v-19
	C512,404.2,504.8,397,496,397z"/>
<path class="st1" d="M291.2,276.6c45.7-45.4,90-89.4,135-134.1c-21.9,0-43.9,0.1-65.9,0c-4.5,0-10.1,0.9-13.3-1.4
	c-4.4-3.2-10.1-9.4-9.4-13.4c0.8-4.9,7.5-12.3,11.9-12.4c38.9-1,77.9-1,116.8,0.2c4.4,0.1,11.9,10,12,15.5
	c1.1,35.9,0.6,71.8,0.5,107.7c0,9-3,16.3-13.4,16.6c-11.4,0.4-14.5-7.1-14.5-16.9c0-24,0-48.1,0-75.6c-6.4,5.9-10.1,9.1-13.5,12.5
	c-42.6,42.5-85.1,85.1-127.7,127.6c-13.7,13.6-17.8,13.7-31.2,0.3c-22.9-22.8-45.6-45.8-71-71.4c-5.4,6.4-9.9,12.3-15,17.5
	c-28.2,28.4-56.6,56.5-84.7,84.8c-7,7.1-14.7,10.1-22.4,2.7c-8-7.7-4.4-15.5,2.5-22.4c35.8-35.8,71.6-71.4,107.2-107.3
	c9.4-9.5,17.6-9.7,27.1,0C245.3,230.9,269,254.3,291.2,276.6z"/>
</svg>
