<?xml version="1.0" encoding="utf-8"?>
<!-- Generator: Adobe Illustrator 23.0.5, SVG Export Plug-In . SVG Version: 6.00 Build 0)  -->
<svg version="1.1" id="Layer_1" xmlns="http://www.w3.org/2000/svg" xmlns:xlink="http://www.w3.org/1999/xlink" x="0px" y="0px"
	 viewBox="0 0 83 64" style="enable-background:new 0 0 83 64;" xml:space="preserve">
<g>
	<path d="M77.2,21.6c0,2.2-2,3.9-4.4,3.7c-2.4-0.2-4-2.1-3.7-4.3c0-0.2-0.1-0.5-0.3-0.6c-2.8-1.8-5.6-3.5-8.5-5.3
		c-0.3-0.2-0.5-0.2-0.7,0c-1.6,0.9-3.7,0.6-5-0.7c-0.3-0.3-0.5-0.3-0.9-0.2c-3.3,0.9-6.6,1.8-10,2.7c-0.3,0.1-0.5,0.2-0.5,0.5
		c-0.4,1.8-1.9,3-3.9,3.1c-1.9,0-3.5-1.1-4-2.9c-0.1-0.4,0-0.8-0.1-1.1c0-0.2-0.2-0.5-0.3-0.6c-2.4-1.3-4.9-2.6-7.3-3.9
		c-0.3-0.2-0.5-0.1-0.7,0.1c-1.2,0.9-2.5,1.2-4,0.7c-0.2-0.1-0.6,0-0.8,0.1c-2.6,1.7-5.2,3.4-7.9,5.2c-0.3,0.2-0.3,0.3-0.3,0.6
		c0.4,2-1.1,4-3.2,4.3c-2.3,0.3-4.4-1-4.8-3c-0.4-2.1,1.2-4,3.4-4.3c0.9-0.1,1.8,0,2.5,0.4c0.3,0.1,0.5,0.1,0.7,0
		c2.5-1.6,5-3.3,7.5-4.9c0.3-0.2,0.4-0.3,0.2-0.7c-0.8-2.1,0.6-4.2,2.9-4.8c2.3-0.5,4.6,0.9,4.9,3c0.1,0.6,0.3,0.9,0.9,1.2
		c2.4,1.3,4.8,2.5,7.2,3.8c0.3,0.2,0.5,0.2,0.8,0c1.6-1,3.8-0.8,5.2,0.5c0.3,0.3,0.5,0.3,0.9,0.2c3.3-0.9,6.5-1.8,9.8-2.6
		c0.4-0.1,0.6-0.2,0.7-0.6c0.3-1.9,2.3-3.2,4.4-3c2.1,0.2,3.8,1.9,3.6,3.9c-0.1,0.6,0.2,0.9,0.7,1.3c2.6,1.6,5.3,3.2,7.9,4.9
		c0.4,0.2,0.6,0.3,1.1,0.1C73.9,17,77.2,18.8,77.2,21.6z"/>
	<path d="M51.8,41.1c0-5.2,0-10.3,0-15.5c0-1.1,0.3-1.4,1.6-1.4c2.3,0,4.5,0,6.8,0c1.1,0,1.5,0.3,1.5,1.3c0,10.4,0,20.8,0,31.1
		c0,1.1-0.3,1.4-1.5,1.4c-2.3,0-4.5,0-6.8,0c-1.1,0-1.4-0.3-1.4-1.3C51.8,51.5,51.8,46.3,51.8,41.1z"/>
	<path d="M19.2,41.1c0-5.2,0-10.3,0-15.5c0-1.1,0.3-1.4,1.6-1.4c2.3,0,4.5,0,6.8,0c1.1,0,1.5,0.3,1.5,1.3c0,10.4,0,20.8,0,31.1
		c0,1.1-0.3,1.4-1.5,1.4c-2.3,0-4.5,0-6.8,0c-1.1,0-1.5-0.3-1.5-1.3C19.2,51.5,19.2,46.3,19.2,41.1z"/>
	<path d="M35.2,44.6c0-4,0-8,0-12c0-1.2,0.3-1.4,1.6-1.4c2.2,0,4.4,0,6.6,0c1.2,0,1.5,0.3,1.5,1.4c0,8,0,16,0,24
		c0,1-0.3,1.3-1.5,1.4c-2.3,0-4.6,0-6.9,0c-1.1,0-1.4-0.3-1.4-1.4C35.2,52.6,35.2,48.6,35.2,44.6z"/>
	<path d="M78,46.9c0,3.3,0,6.5,0,9.8c0,1-0.3,1.3-1.5,1.3c-2.3,0-4.6,0-6.9,0c-1.1,0-1.4-0.3-1.4-1.3c0-6.5,0-13.1,0-19.6
		c0-1,0.4-1.3,1.4-1.3c2.3,0,4.6,0,6.9,0c1,0,1.4,0.3,1.4,1.3C78,40.3,78,43.6,78,46.9z"/>
	<path d="M5,46.9c0-3.3,0-6.5,0-9.8c0-1,0.4-1.3,1.4-1.3c2.3,0,4.6,0,6.9,0c1,0,1.4,0.3,1.4,1.3c0,6.6,0,13.1,0,19.7
		c0,1-0.4,1.3-1.4,1.3c-2.3,0-4.6,0-6.9,0C5.4,58,5,57.7,5,56.7C5,53.4,5,50.1,5,46.9z"/>
</g>
</svg>
