<?xml version="1.0" encoding="utf-8"?>
<!-- Generator: Adobe Illustrator 22.0.1, SVG Export Plug-In . SVG Version: 6.00 Build 0)  -->
<svg version="1.1" id="Layer_1" focusable="false" xmlns="http://www.w3.org/2000/svg" xmlns:xlink="http://www.w3.org/1999/xlink"
	 x="0px" y="0px" viewBox="0 0 512 512" style="enable-background:new 0 0 512 512;" xml:space="preserve">
<style type="text/css">
	.st0{fill:#415BFC;}
	.st1{fill:#FFFFFF;}
	.st2{fill:#F6CB6C;}
</style>
<path class="st0" d="M503.6,506.8c-134.4,0-267.2,0-401.8,0c0-134.1,0-267.8,0-402.8c133.8,0,267.1,0,401.8,0
	C503.6,238,503.6,371.3,503.6,506.8z M256.8,226.7c31.8,0,61.4,0,91,0c0-31.2,0-61.2,0-90.9c-31.1,0-60.6,0-91,0
	C256.8,166.4,256.8,196,256.8,226.7z M223.9,351.1c0-30.9,0-60.9,0-90.9c-31.2,0-61.2,0-90.8,0c0,31.1,0,60.7,0,90.9
	C163.8,351.1,193.3,351.1,223.9,351.1z M348.6,260.2c-32,0-62,0-91.6,0c0,31.1,0,60.6,0,90.6c31,0,61,0,91.6,0
	C348.6,320.1,348.6,290.5,348.6,260.2z M380.9,350.8c31.6,0,61.2,0,90.9,0c0-31.1,0-61.1,0-91c-31,0-60.5,0-90.9,0
	C380.9,290.5,380.9,320,380.9,350.8z M256.9,383.8c0,31.2,0,60.8,0,90.9c31,0,61,0,91.3,0c0-30.8,0-60.4,0-90.9
	C317.8,383.8,288.2,383.8,256.9,383.8z M222.9,226.7c0-31.9,0-61.6,0-90.9c-31.3,0-60.2,0-90,0c0,30.7,0,60.2,0,90.9
	C163.4,226.7,192.9,226.7,222.9,226.7z M471.9,226.7c0-30.8,0-60.8,0-90.9c-30.9,0-60.5,0-90.7,0c0,30.8,0,60.2,0,90.9
	C411.9,226.7,441.4,226.7,471.9,226.7z M133.5,383.9c0,31.2,0,61.1,0,90.6c31.1,0,60.6,0,90.3,0c0-31,0-60.4,0-90.6
	C192.9,383.9,163.4,383.9,133.5,383.9z M381.3,383.8c0,31.6,0,61.1,0,90.8c31.1,0,61,0,90.9,0c0-30.9,0-60.4,0-90.8
	C441.5,383.8,412.1,383.8,381.3,383.8z"/>
<path class="st0" d="M256.5,39.9c0-10.3,0-18.9,0-28.9c30.5,0,60.5,0,91.7,0c0,9.4,0,18.4,0,28.9C318.2,39.9,288.2,39.9,256.5,39.9z
	"/>
<path class="st0" d="M7.8,350.6c0-30.2,0-59.8,0-90.6c9.9,0,19.3,0,29.8,0c0,30.2,0,59.8,0,90.6C27.7,350.6,18.2,350.6,7.8,350.6z"
	/>
<path class="st0" d="M100.9,40.2c0-10.7,0-19.2,0-29.2c30.2,0,59.7,0,90.9,0c0,9.3,0,18.7,0,29.2C161.8,40.2,132.3,40.2,100.9,40.2z
	"/>
<path class="st0" d="M503.8,40.5c-31.1,0-60.1,0-90.6,0c0-10.2,0-19.5,0-29.9c30.4,0,59.9,0,90.6,0
	C503.8,20.7,503.8,29.6,503.8,40.5z"/>
<path class="st0" d="M8.1,104.1c10.5,0,19.4,0,29.4,0c0,30.8,0,60.3,0,90.9c-10,0-19.1,0-29.4,0C8.1,165.1,8.1,135.5,8.1,104.1z"/>
<path class="st0" d="M37.1,506.6c-10,0-18.9,0-29.1,0c0-30.6,0-60.1,0-90.9c9.6,0,18.6,0,29.1,0C37.1,445.3,37.1,474.8,37.1,506.6z"
	/>
<path class="st1" d="M256.8,226.7c0-30.7,0-60.2,0-90.9c30.4,0,59.9,0,91,0c0,29.7,0,59.7,0,90.9
	C318.2,226.7,288.6,226.7,256.8,226.7z"/>
<path class="st2" d="M223.9,351.1c-30.6,0-60.1,0-90.8,0c0-30.2,0-59.8,0-90.9c29.6,0,59.6,0,90.8,0
	C223.9,290.2,223.9,320.2,223.9,351.1z"/>
<path class="st1" d="M348.6,260.2c0,30.3,0,59.9,0,90.6c-30.6,0-60.6,0-91.6,0c0-30,0-59.5,0-90.6
	C286.5,260.2,316.5,260.2,348.6,260.2z"/>
<path class="st1" d="M380.9,350.8c0-30.8,0-60.4,0-91c30.4,0,59.9,0,90.9,0c0,29.9,0,59.9,0,91C442.2,350.8,412.6,350.8,380.9,350.8
	z"/>
<path class="st1" d="M256.9,383.8c31.3,0,60.8,0,91.3,0c0,30.6,0,60.1,0,90.9c-30.4,0-60.4,0-91.3,0
	C256.9,444.5,256.9,415,256.9,383.8z"/>
<path class="st2" d="M222.9,226.7c-30,0-59.5,0-90,0c0-30.7,0-60.2,0-90.9c29.8,0,58.7,0,90,0C222.9,165.1,222.9,194.8,222.9,226.7z
	"/>
<path class="st1" d="M471.9,226.7c-30.5,0-60,0-90.7,0c0-30.6,0-60.1,0-90.9c30.2,0,59.7,0,90.7,0
	C471.9,165.9,471.9,195.9,471.9,226.7z"/>
<path class="st2" d="M133.5,383.9c29.9,0,59.4,0,90.3,0c0,30.2,0,59.7,0,90.6c-29.7,0-59.2,0-90.3,0
	C133.5,445.1,133.5,415.1,133.5,383.9z"/>
<path class="st1" d="M381.3,383.8c30.9,0,60.3,0,90.9,0c0,30.4,0,59.8,0,90.8c-29.8,0-59.7,0-90.9,0
	C381.3,444.8,381.3,415.4,381.3,383.8z"/>
</svg>
